<?xml version="1.0" encoding="UTF-8"?>
<!DOCTYPE svg PUBLIC "-//W3C//DTD SVG 1.1//EN" "http://www.w3.org/Graphics/SVG/1.1/DTD/svg11.dtd">
<svg version="1.2" width="300mm" height="300mm" viewBox="0 0 30000 30000" preserveAspectRatio="xMidYMid" fill-rule="evenodd" stroke-width="28.222" stroke-linejoin="round" xmlns="http://www.w3.org/2000/svg" xmlns:ooo="http://xml.openoffice.org/svg/export" xmlns:xlink="http://www.w3.org/1999/xlink" xmlns:presentation="http://sun.com/xmlns/staroffice/presentation" xmlns:smil="http://www.w3.org/2001/SMIL20/" xmlns:anim="urn:oasis:names:tc:opendocument:xmlns:animation:1.0" xml:space="preserve">
 <defs class="ClipPathGroup">
  <clipPath id="presentation_clip_path" clipPathUnits="userSpaceOnUse">
   <rect x="0" y="0" width="30000" height="30000"/>
  </clipPath>
  <clipPath id="presentation_clip_path_shrink" clipPathUnits="userSpaceOnUse">
   <rect x="30" y="30" width="29940" height="29940"/>
  </clipPath>
 </defs>
 <defs class="TextShapeIndex">
  <g ooo:slide="id1" ooo:id-list="id3 id4 id5 id6"/>
 </defs>
 <defs class="EmbeddedBulletChars">
  <g id="bullet-char-template-57356" transform="scale(0.00048828125,-0.00048828125)">
   <path d="M 580,1141 L 1163,571 580,0 -4,571 580,1141 Z"/>
  </g>
  <g id="bullet-char-template-57354" transform="scale(0.00048828125,-0.00048828125)">
   <path d="M 8,1128 L 1137,1128 1137,0 8,0 8,1128 Z"/>
  </g>
  <g id="bullet-char-template-10146" transform="scale(0.00048828125,-0.00048828125)">
   <path d="M 174,0 L 602,739 174,1481 1456,739 174,0 Z M 1358,739 L 309,1346 659,739 1358,739 Z"/>
  </g>
  <g id="bullet-char-template-10132" transform="scale(0.00048828125,-0.00048828125)">
   <path d="M 2015,739 L 1276,0 717,0 1260,543 174,543 174,936 1260,936 717,1481 1274,1481 2015,739 Z"/>
  </g>
  <g id="bullet-char-template-10007" transform="scale(0.00048828125,-0.00048828125)">
   <path d="M 0,-2 C -7,14 -16,27 -25,37 L 356,567 C 262,823 215,952 215,954 215,979 228,992 255,992 264,992 276,990 289,987 310,991 331,999 354,1012 L 381,999 492,748 772,1049 836,1024 860,1049 C 881,1039 901,1025 922,1006 886,937 835,863 770,784 769,783 710,716 594,584 L 774,223 C 774,196 753,168 711,139 L 727,119 C 717,90 699,76 672,76 641,76 570,178 457,381 L 164,-76 C 142,-110 111,-127 72,-127 30,-127 9,-110 8,-76 1,-67 -2,-52 -2,-32 -2,-23 -1,-13 0,-2 Z"/>
  </g>
  <g id="bullet-char-template-10004" transform="scale(0.00048828125,-0.00048828125)">
   <path d="M 285,-33 C 182,-33 111,30 74,156 52,228 41,333 41,471 41,549 55,616 82,672 116,743 169,778 240,778 293,778 328,747 346,684 L 369,508 C 377,444 397,411 428,410 L 1163,1116 C 1174,1127 1196,1133 1229,1133 1271,1133 1292,1118 1292,1087 L 1292,965 C 1292,929 1282,901 1262,881 L 442,47 C 390,-6 338,-33 285,-33 Z"/>
  </g>
  <g id="bullet-char-template-9679" transform="scale(0.00048828125,-0.00048828125)">
   <path d="M 813,0 C 632,0 489,54 383,161 276,268 223,411 223,592 223,773 276,916 383,1023 489,1130 632,1184 813,1184 992,1184 1136,1130 1245,1023 1353,916 1407,772 1407,592 1407,412 1353,268 1245,161 1136,54 992,0 813,0 Z"/>
  </g>
  <g id="bullet-char-template-8226" transform="scale(0.00048828125,-0.00048828125)">
   <path d="M 346,457 C 273,457 209,483 155,535 101,586 74,649 74,723 74,796 101,859 155,911 209,963 273,989 346,989 419,989 480,963 531,910 582,859 608,796 608,723 608,648 583,586 532,535 482,483 420,457 346,457 Z"/>
  </g>
  <g id="bullet-char-template-8211" transform="scale(0.00048828125,-0.00048828125)">
   <path d="M -4,459 L 1135,459 1135,606 -4,606 -4,459 Z"/>
  </g>
  <g id="bullet-char-template-61548" transform="scale(0.00048828125,-0.00048828125)">
   <path d="M 173,740 C 173,903 231,1043 346,1159 462,1274 601,1332 765,1332 928,1332 1067,1274 1183,1159 1299,1043 1357,903 1357,740 1357,577 1299,437 1183,322 1067,206 928,148 765,148 601,148 462,206 346,322 231,437 173,577 173,740 Z"/>
  </g>
 </defs>
 <defs class="TextEmbeddedBitmaps"/>
 <g>
  <g id="id2" class="Master_Slide">
   <g id="bg-id2" class="Background"/>
   <g id="bo-id2" class="BackgroundObjects"/>
  </g>
 </g>
 <g class="SlideGroup">
  <g>
   <g id="container-id1">
    <g id="id1" class="Slide" clip-path="url(#presentation_clip_path)">
     <g class="Page">
      <g class="com.sun.star.drawing.CustomShape">
       <g id="id3">
        <rect class="BoundingBox" stroke="none" fill="none" x="2001" y="15241" width="25999" height="9119"/>
        <path fill="rgb(255,255,255)" fill-opacity="0.502" stroke="rgb(255,255,255)" stroke-opacity="0.502" d="M 15000,0 L 3060,23300 3060,23300 26940,16300 26940,16300 15000,23300 Z"/>
        <path fill="none" stroke="rgb(0,0,0)" stroke-width="2117" stroke-linejoin="round" d="M 15000,0 L 3060,23300 3060,23300 26940,16300 26940,16300 15000,23300 Z"/>
       </g>
      </g>
      <g class="com.sun.star.drawing.CustomShape">
       <g id="id4">
        <rect class="BoundingBox" stroke="none" fill="none" x="1991" y="5540" width="26020" height="11620"/>
        <path fill="rgb(255,255,255)" fill-opacity="0.502" stroke="rgb(255,255,255)" stroke-opacity="0.502" d="M 3050,0 L 26951,16100 20975,16100 9025,6599 3050,6599 Z M 3050,16100 L 3050,16100 Z M 26951,16100 L 26951,6599 Z"/>
        <path fill="none" stroke="rgb(0,0,0)" stroke-width="2117" stroke-linejoin="round" d="M 3050,0 L 26951,16100 20975,16100 9025,6599 3050,6599 Z"/>
       </g>
      </g>
      <g class="com.sun.star.drawing.EllipseShape">
       <g id="id5">
        <rect class="BoundingBox" stroke="none" fill="none" x="21035" y="18035" width="3731" height="3731"/>
        <path fill="rgb(0,255,255)" fill-opacity="0.502" stroke="rgb(255,255,255)" stroke-opacity="0.502" d="M 22900,0 C 22661,21200 22457,21200 22250,21145 22043,21026 21894,20906 21774,20757 21655,20550 21600,20343 21600,20139 21600,19900 21655,19661 21774,19457 21894,19250 22043,19043 22250,18894 22457,18774 22661,18655 22900,18600 23139,18600 23343,18600 23550,18655 23757,18774 23906,18894 24026,19043 24145,19250 24200,19457 24200,19661 24200,19900 24145,20139 24026,20343 23906,20550 23757,20757 23550,20906 23343,21026 23139,21145 22900,21200 L 22900,21200 Z"/>
        <path fill="none" stroke="rgb(0,0,0)" stroke-width="1129" stroke-linejoin="round" d="M 22900,0 C 22661,21200 22457,21200 22250,21145 22043,21026 21894,20906 21774,20757 21655,20550 21600,20343 21600,20139 21600,19900 21655,19661 21774,19457 21894,19250 22043,19043 22250,18894 22457,18774 22661,18655 22900,18600 23139,18600 23343,18600 23550,18655 23757,18774 23906,18894 24026,19043 24145,19250 24200,19457 24200,19661 24200,19900 24145,20139 24026,20343 23906,20550 23757,20757 23550,20906 23343,21026 23139,21145 22900,21200 L 22900,21200 Z"/>
       </g>
      </g>
      <g class="com.sun.star.drawing.EllipseShape">
       <g id="id6">
        <rect class="BoundingBox" stroke="none" fill="none" x="16535" y="18035" width="3731" height="3731"/>
        <path fill="rgb(3,255,0)" fill-opacity="0.502" stroke="rgb(255,255,255)" stroke-opacity="0.502" d="M 18400,0 C 18161,21200 17957,21200 17750,21145 17543,21026 17394,20906 17274,20757 17155,20550 17100,20343 17100,20139 17100,19900 17155,19661 17274,19457 17394,19250 17543,19043 17750,18894 17957,18774 18161,18655 18400,18600 18639,18600 18843,18600 19050,18655 19257,18774 19406,18894 19526,19043 19645,19250 19700,19457 19700,19661 19700,19900 19645,20139 19526,20343 19406,20550 19257,20757 19050,20906 18843,21026 18639,21145 18400,21200 L 18400,21200 Z"/>
        <path fill="none" stroke="rgb(0,0,0)" stroke-width="1129" stroke-linejoin="round" d="M 18400,0 C 18161,21200 17957,21200 17750,21145 17543,21026 17394,20906 17274,20757 17155,20550 17100,20343 17100,20139 17100,19900 17155,19661 17274,19457 17394,19250 17543,19043 17750,18894 17957,18774 18161,18655 18400,18600 18639,18600 18843,18600 19050,18655 19257,18774 19406,18894 19526,19043 19645,19250 19700,19457 19700,19661 19700,19900 19645,20139 19526,20343 19406,20550 19257,20757 19050,20906 18843,21026 18639,21145 18400,21200 L 18400,21200 Z"/>
       </g>
      </g>
     </g>
    </g>
   </g>
  </g>
 </g>
</svg>